<?xml version="1.0" encoding="UTF-8"?>
<svg width="34px" height="34px" viewBox="0 0 34 34" version="1.1" xmlns="http://www.w3.org/2000/svg" xmlns:xlink="http://www.w3.org/1999/xlink">
    <!-- Generator: Sketch 52.2 (67145) - http://www.bohemiancoding.com/sketch -->
    <title>Behance</title>
    <desc>Created with Sketch.</desc>
    <g id="Page-2" stroke="none" stroke-width="1" fill="none" fill-rule="evenodd">
        <g id="Homepage" transform="translate(-445.000000, -569.000000)">
            <g id="Behance" transform="translate(445.000000, 569.000000)">
                <rect id="Rectangle-Copy-3" fill="#EEEEEE" x="0" y="0" width="34" height="34"></rect>
                <path d="M24.255291,12.5849277 L19.7451541,12.5849277 L19.7451541,11.4646437 L24.2556676,11.4646437 L24.2556676,12.5849277 L24.255291,12.5849277 Z M16.7426508,17.1788452 C17.0336652,17.6295952 17.1790887,18.1768897 17.1790887,18.8194314 C17.1790887,19.4839016 17.0151263,20.0799915 16.681552,20.6065291 C16.4693384,20.9549596 16.2058603,21.24928 15.8892765,21.4862261 C15.5327274,21.76025 15.1106017,21.9481497 14.6253267,22.0485442 C14.1385033,22.1491062 13.611589,22.1999102 13.043998,22.1999102 L8,22.1999102 L8,11 L13.4089168,11 C14.7722986,11.0221797 15.7388731,11.4171876 16.3096446,12.1929329 C16.6521326,12.6687084 16.8218282,13.2396054 16.8218282,13.9031968 C16.8218282,14.5879218 16.650082,15.1358021 16.3042461,15.552069 C16.1118686,15.785458 15.8276755,15.9977554 15.4514577,16.1893796 C16.0213085,16.3979943 16.453687,16.7265049 16.7426508,17.1788452 Z M10.5829722,15.4155593 L12.9529357,15.4155593 C13.4399683,15.4155593 13.8336789,15.3229904 14.136913,15.1379364 C14.4399379,14.9531753 14.5911365,14.6247484 14.5911365,14.1531997 C14.5911365,13.6322279 14.3909333,13.2864339 13.9895645,13.1200024 C13.6445656,13.0043751 13.2031478,12.9448247 12.667529,12.9448247 L10.5829722,12.9448247 L10.5829722,15.4155593 Z M14.8193363,18.6594446 C14.8193363,18.077667 14.5815532,17.6754612 14.1069495,17.4596485 C13.8415464,17.3369906 13.4670862,17.2743016 12.9869585,17.2698238 L10.5829722,17.2698238 L10.5829722,20.2545415 L12.9497552,20.2545415 C13.4359927,20.2545415 13.8123362,20.19089 14.0839328,20.0581047 C14.5737275,19.8139607 14.8193363,19.3493169 14.8193363,18.6594446 Z M25.9286864,16.8374034 C25.9831731,17.2038288 26.0078219,17.7354719 25.9978201,18.430366 L20.1566921,18.430366 C20.1889155,19.2366189 20.4672498,19.8004436 20.9951265,20.1230954 C21.313468,20.3254328 21.6994366,20.4242371 22.1514002,20.4242371 C22.6279708,20.4242371 23.0164084,20.3037553 23.3154158,20.056096 C23.478332,19.9248173 23.6220397,19.7395122 23.7462878,19.5057047 L25.8872564,19.5057047 C25.8311794,19.9818986 25.5733927,20.464872 25.11013,20.955671 C24.3923866,21.7357687 23.3857631,22.1269265 22.0929797,22.1269265 C21.0250064,22.1269265 20.0837921,21.7970348 19.2668259,21.139637 C18.45258,20.4799375 18.0436366,19.4100391 18.0436366,17.9258825 C18.0436366,16.5341274 18.4107733,15.4688742 19.1475159,14.7274028 C19.8869786,13.9845503 20.8412915,13.6148189 22.0176106,13.6148189 C22.7148482,13.6148189 23.3433706,13.7394437 23.9040985,13.9899906 C24.4630687,14.2407886 24.9250341,14.6355035 25.2888649,15.1779854 C25.6181288,15.6557277 25.8298821,16.2081277 25.9286864,16.8374034 Z M23.8213222,17.0463948 C23.7820683,16.4888892 23.5959262,16.0669309 23.2607617,15.778553 C22.9283592,15.48938 22.5130967,15.3442076 22.0176106,15.3442076 C21.478351,15.3442076 21.0619586,15.4993818 20.7660898,15.8043735 C20.4682123,16.1087376 20.2828653,16.5225354 20.2069103,17.0464366 L23.8213222,17.0464366 L23.8213222,17.0463948 Z" fill="#A9A9A9" fill-rule="nonzero"></path>
            </g>
        </g>
    </g>
</svg>