<?xml version="1.0" encoding="UTF-8"?>
<svg width="34px" height="34px" viewBox="0 0 34 34" version="1.1" xmlns="http://www.w3.org/2000/svg" xmlns:xlink="http://www.w3.org/1999/xlink">
    <!-- Generator: Sketch 52.2 (67145) - http://www.bohemiancoding.com/sketch -->
    <title>LinkedIn</title>
    <desc>Created with Sketch.</desc>
    <g id="Page-2" stroke="none" stroke-width="1" fill="none" fill-rule="evenodd">
        <g id="Homepage" transform="translate(-401.000000, -569.000000)">
            <g id="LinkedIn" transform="translate(401.000000, 569.000000)">
                <rect id="Rectangle" fill="#EEEEEE" x="0" y="0" width="34" height="34"></rect>
                <path d="M25.2,19.1964881 L25.2,25 L21.7278155,25 L21.7278155,19.5851723 C21.7278155,18.2249235 21.2256014,17.2966068 19.9687857,17.2966068 C19.0093663,17.2966068 18.4384151,17.9222242 18.1872328,18.5274038 C18.0956335,18.7437531 18.0720557,19.044883 18.0720557,19.3477282 L18.0720557,25 L14.5987036,25 C14.5987036,25 14.6454825,15.8290592 14.5987036,14.8788814 L18.0717168,14.8788814 L18.0717168,16.3135094 C18.0646736,16.3242393 18.0555212,16.3358086 18.0488923,16.34621 L18.0717168,16.34621 L18.0717168,16.3135094 C18.5331405,15.6248631 19.3571949,14.6411088 21.2016847,14.6411088 C23.4868829,14.6410723 25.2,16.0876711 25.2,19.1964881 Z M10.9654294,10 C9.77720016,10 9,10.7552153 9,11.7483492 C9,12.7198408 9.75471465,13.4979757 10.9193285,13.4979757 L10.9425296,13.4979757 C12.1537716,13.4979757 12.9070551,12.7199868 12.9070551,11.7483492 C12.8842306,10.7552153 12.1537716,10 10.9654294,10 Z M9.20628666,25 L12.6783205,25 L12.6783205,14.8788814 L9.20628666,14.8788814 L9.20628666,25 Z" fill="#A9A9A9" fill-rule="nonzero"></path>
            </g>
        </g>
    </g>
</svg>